<svg width="192" height="232" viewBox="0 0 192 232" fill="none" xmlns="http://www.w3.org/2000/svg">
<mask id="path-1-inside-1_2001_1292" fill="white">
<path d="M136 0C166.928 0 192 25.0721 192 56C192 66.2003 189.272 75.763 184.507 84C189.272 92.237 192 101.8 192 112C192 123.898 188.288 134.929 181.961 144C188.288 153.071 192 164.102 192 176C192 206.928 166.928 232 136 232C120.33 232 106.164 225.563 96 215.19C85.8358 225.563 71.6699 232 56 232C25.0721 232 0 206.928 0 176C0 164.102 3.71098 153.071 10.0381 144C3.71098 134.929 0 123.898 0 112C0 101.8 2.72736 92.2369 7.49219 84C2.72736 75.7631 0 66.2001 0 56C0 25.0721 25.0721 0 56 0C71.6696 0 85.8358 6.43606 96 16.8086C106.164 6.43606 120.33 0 136 0Z"/>
</mask>
<path d="M136 0C166.928 0 192 25.0721 192 56C192 66.2003 189.272 75.763 184.507 84C189.272 92.237 192 101.8 192 112C192 123.898 188.288 134.929 181.961 144C188.288 153.071 192 164.102 192 176C192 206.928 166.928 232 136 232C120.33 232 106.164 225.563 96 215.19C85.8358 225.563 71.6699 232 56 232C25.0721 232 0 206.928 0 176C0 164.102 3.71098 153.071 10.0381 144C3.71098 134.929 0 123.898 0 112C0 101.8 2.72736 92.2369 7.49219 84C2.72736 75.7631 0 66.2001 0 56C0 25.0721 25.0721 0 56 0C71.6696 0 85.8358 6.43606 96 16.8086C106.164 6.43606 120.33 0 136 0Z" fill="white"/>
<path d="M184.507 84L183.641 83.4993L183.352 84L183.641 84.5007L184.507 84ZM181.961 144L181.141 143.428L180.742 144L181.141 144.572L181.961 144ZM96 215.19L96.7143 214.491L96 213.762L95.2857 214.491L96 215.19ZM10.0381 144L10.8583 144.572L11.2573 144L10.8583 143.428L10.0381 144ZM7.49219 84L8.35779 84.5007L8.64745 84L8.35779 83.4993L7.49219 84ZM96 16.8086L95.2858 17.5085L96 18.2374L96.7142 17.5085L96 16.8086ZM136 0V1C166.376 1 191 25.6243 191 56H192H193C193 24.5198 167.48 -1 136 -1V0ZM192 56H191C191 66.0197 188.321 75.4103 183.641 83.4993L184.507 84L185.372 84.5007C190.223 76.1157 193 66.3809 193 56H192ZM184.507 84L183.641 84.5007C188.321 92.5897 191 101.98 191 112H192H193C193 101.619 190.223 91.8843 185.372 83.4993L184.507 84ZM192 112H191C191 123.687 187.355 134.519 181.141 143.428L181.961 144L182.781 144.572C189.222 135.339 193 124.11 193 112H192ZM181.961 144L181.141 144.572C187.355 153.481 191 164.313 191 176H192H193C193 163.89 189.222 152.661 182.781 143.428L181.961 144ZM192 176H191C191 206.376 166.376 231 136 231V232V233C167.48 233 193 207.48 193 176H192ZM136 232V231C120.61 231 106.698 224.679 96.7143 214.491L96 215.19L95.2857 215.89C105.63 226.447 120.05 233 136 233V232ZM96 215.19L95.2857 214.491C85.3019 224.679 71.3902 231 56 231V232V233C71.9495 233 86.3698 226.447 96.7143 215.89L96 215.19ZM56 232V231C25.6243 231 1 206.376 1 176H0H-1C-1 207.48 24.5198 233 56 233V232ZM0 176H1C1 164.313 4.6444 153.48 10.8583 144.572L10.0381 144L9.2179 143.428C2.77755 152.661 -1 163.891 -1 176H0ZM10.0381 144L10.8583 143.428C4.6444 134.52 1 123.687 1 112H0H-1C-1 124.109 2.77755 135.339 9.2179 144.572L10.0381 144ZM0 112H1C1 101.98 3.67863 92.5895 8.35779 84.5007L7.49219 84L6.62658 83.4993C1.7761 91.8842 -1 101.619 -1 112H0ZM7.49219 84L8.35779 83.4993C3.67863 75.4105 1 66.0196 1 56H0H-1C-1 66.3806 1.7761 76.1158 6.62658 84.5007L7.49219 84ZM0 56H1C1 25.6243 25.6243 1 56 1V0V-1C24.5198 -1 -1 24.5198 -1 56H0ZM56 0V1C71.39 1 85.3019 7.31998 95.2858 17.5085L96 16.8086L96.7142 16.1087C86.3698 5.55214 71.9492 -1 56 -1V0ZM96 16.8086L96.7142 17.5085C106.698 7.31998 120.61 1 136 1V0V-1C120.051 -1 105.63 5.55214 95.2858 16.1087L96 16.8086Z" fill="black" mask="url(#path-1-inside-1_2001_1292)"/>
</svg>
