<svg width="725" height="480" viewBox="0 0 725 480" fill="none" xmlns="http://www.w3.org/2000/svg">
<path d="M609.084 0.5C672.827 0.5 724.5 52.1498 724.5 115.862C724.5 136.876 718.878 156.575 709.058 173.543L708.913 173.793L709.058 174.044C718.878 191.012 724.5 210.711 724.5 231.725C724.5 256.236 716.851 278.959 703.811 297.645L703.611 297.931L703.811 298.217C716.851 316.903 724.5 339.626 724.5 364.138C724.5 427.85 672.827 479.5 609.084 479.5C576.789 479.5 547.593 466.241 526.645 444.872L526.287 444.509L525.931 444.872C504.982 466.241 475.786 479.5 443.49 479.5C412.109 479.5 383.655 466.982 362.85 446.669L362.5 446.328L362.15 446.669C341.345 466.982 312.891 479.5 281.51 479.5C249.214 479.5 220.018 466.241 199.069 444.872L198.713 444.509L198.355 444.872C177.407 466.241 148.211 479.5 115.916 479.5C52.1735 479.5 0.5 427.85 0.5 364.138C0.500044 339.627 8.14842 316.903 21.1885 298.217L21.3887 297.931L21.1885 297.645C8.1486 278.959 0.500098 256.236 0.5 231.725C0.5 210.711 6.12149 191.012 15.9414 174.044L16.0859 173.793L15.9414 173.543C6.12143 156.575 0.500042 136.876 0.5 115.862C0.5 52.1498 52.1735 0.5 115.916 0.5C148.211 0.500088 177.407 13.7585 198.355 35.127L198.713 35.4912L199.069 35.127C220.018 13.7584 249.214 0.5 281.51 0.5C312.89 0.500057 341.345 13.0173 362.15 33.3301L362.5 33.6709L362.85 33.3301C383.655 13.0173 412.11 0.500065 443.49 0.5C475.786 0.5 504.982 13.7584 525.931 35.127L526.287 35.4912L526.645 35.127C547.593 13.7585 576.789 0.5001 609.084 0.5Z" fill="white" stroke="black"/>
</svg>
